<?xml version="1.0" encoding="utf-8"?>
<!-- Generator: Adobe Illustrator 27.5.0, SVG Export Plug-In . SVG Version: 6.00 Build 0)  -->
<svg version="1.1" xmlns="http://www.w3.org/2000/svg" xmlns:xlink="http://www.w3.org/1999/xlink" x="0px" y="0px"
	 viewBox="0 0 500 500" style="enable-background:new 0 0 500 500;" xml:space="preserve">
<g id="BACKGROUND">
	<rect style="fill:#FFFFFF;" width="500" height="500"/>
</g>
<g id="OBJECTS">
	<g>
		<g>
			<rect x="326.347" y="419.934" style="fill:#390C1F;" width="3.891" height="24.905"/>
			<path style="fill:#E3283D;" d="M299.009,353.245c0,0-7.056-0.138-8.993,3.736c-1.937,3.874,0.692,38.464,8.993,58.526
				c1.937,4.012,34.153,8.086,60.718,2.828c-1.245-8.855-6.157-11.544-6.157-11.544L299.009,353.245z"/>
			<rect x="322.434" y="443.317" style="fill:#390C1F;" width="11.718" height="17.156"/>
			<rect x="312.43" y="460.473" style="fill:#390C1F;" width="31.727" height="4.843"/>
			<polygon style="fill:#FD7A6E;" points="342.519,449.681 343.412,455.631 336.745,456.876 335.325,450.926 			"/>
			<path style="fill:#727CCB;" d="M349.973,343.111c0,0,3.99,0,5.098,15.517c1.108,14.409,4.655,28.374,4.655,28.374h-9.753
				C349.973,387.001,344.21,361.066,349.973,343.111z"/>
			<polygon style="fill:#FD7A6E;" points="364.795,448.574 364.094,456.876 371.021,456.322 371.021,449.681 			"/>
			<path style="fill:#464292;" d="M310.36,394.338c0,0,0.337,8.44,0.475,11.622c0.138,3.182,2.767,7.056,12.729,7.056l11.345,39.709
				l9.408-1.66v-37.91h10.238l9.249,37.218l8.392,0.553c0,0,4.497-42.753,4.635-44.413c0.138-1.66-19.184-8.993-19.184-8.993
				l-1.158-4.427L310.36,394.338z"/>
			<g>
				<path style="fill:#1C163B;" d="M344.318,413.155c-0.115-1.339-0.168-2.678-0.212-4.016c-0.043-1.339-0.042-2.678-0.063-4.016
					l0.157,0.248c-1.177-0.586-2.366-1.146-3.533-1.752c-1.168-0.604-2.332-1.217-3.471-1.884c1.236,0.462,2.446,0.979,3.652,1.504
					c1.207,0.523,2.392,1.092,3.589,1.636l0.16,0.073l-0.003,0.176c-0.02,1.339-0.019,2.677-0.063,4.016
					C344.486,410.477,344.433,411.816,344.318,413.155z"/>
			</g>
			<path style="fill:#1C163B;" d="M355.11,461.58c-2.214-1.522-11.698-5.949-11.698-5.949l-6.667,1.245c-0.651,4.59,0,8.44,0,8.44
				h19.745C356.49,465.316,357.324,463.102,355.11,461.58z"/>
			<path style="fill:#5E5FAF;" d="M308.772,393.093v15.039c0,0,24.854,0.423,28.424-14.518c11.647,7.707,30.362,7.894,30.362,7.894
				l-4.461-9.056L308.772,393.093z"/>
			<path style="fill:#1C163B;" d="M382.46,461.58c-2.214-1.522-11.698-5.949-11.698-5.949l-6.667,1.245c-0.651,4.59,0,8.44,0,8.44
				h19.745C383.84,465.316,384.673,463.102,382.46,461.58z"/>
			<path style="fill:#5E5FAF;" d="M314.506,343.111l-14.224,6.091l7.112,31.815l29.057,5.985h15.96c0,0-2.882-18.399-3.103-24.605
				c-0.222-6.207,0.665-19.285,0.665-19.285l-19.975-1.552L314.506,343.111z"/>
			<path style="fill:#FCEBE4;" d="M315.79,345.908c0,0,5.63,27.815,18.517,37.249c0,0,2.447-14.35,1.569-25.733
				s-5.878-15.865-5.878-15.865l-4.425,4.768L315.79,345.908z"/>
			<path style="fill:#1C163B;" d="M322.043,349.27l3.957,3.178c0.872-0.281,1.155-0.373,2.027-0.654l1.511-5.466h-3.964
				L322.043,349.27z"/>
			<polygon style="fill:#1C163B;" points="326,352.447 329.538,379.533 335.12,384.376 339.333,384.376 335.876,366.251 
				328.027,351.793 			"/>
			<polygon style="fill:#464292;" points="313.982,340.591 309.416,345.29 315.79,364.28 320.664,365.056 317.826,368.023 
				326.851,382.142 331.868,382.142 			"/>
			<polygon style="fill:#464292;" points="329.538,338.978 336.121,342.035 341.346,360.578 338.164,363.207 342.215,364.28 
				341.623,385.689 338.655,385.689 			"/>
			<rect x="237.587" y="387.001" style="fill:#46428F;" width="209.256" height="8.867"/>
			<path style="fill:#FD7A6E;" d="M322.043,380.573h2.66c0,0,6.428-4.212,8.423-3.103c1.995,1.108,6.207,9.532,6.207,9.532h-18.62
				C320.713,387.001,320.27,384.12,322.043,380.573z"/>
			<path style="fill:#727CCB;" d="M311.403,367.938l-2.66,6.872c0,0,2.66,0.737,2.66,2.474c3.547,0.629,10.64,3.289,10.64,3.289
				v6.428h-25.714c0,0-3.103-1.773-3.547-5.763c-0.443-3.99,4.877-25.492,5.098-28.817c0.222-3.325,4.433-5.542,8.645,0
				C310.738,357.963,311.403,367.938,311.403,367.938z"/>
			<path style="fill:#FD7A6E;" d="M324.19,310.769c0,0,0.553,6.503,3.874,12.729s2.654,7.471-1.717,10.238
				c-4.371,2.767-9.352,3.736-14.886-5.258c-3.182,1.245-5.811-6.226-3.182-6.918C305.65,314.09,318.794,308.97,324.19,310.769z"/>
			<path style="fill:#390C1F;" d="M306.624,309.607c1.29-0.427,2.419-1.202,3.246-2.28c0.969-1.262,2.698-2.715,5.742-3.476
				c6.088-1.522,2.214-2.906,2.214-2.906s2.905-2.905,5.396,0.692c2.49,3.597,6.226,5.95,0.969,9.132
				c-7.195,2.214-8.855-0.415-14.389,5.949c3.321,6.503,1.245,8.025,1.245,8.025s-0.138-2.767-2.767-3.182
				c-3.459-2.352-4.289-5.673-2.629-7.887C303.972,312.626,304.758,310.225,306.624,309.607z"/>
			<rect x="337.196" y="384.376" style="fill:#390C1F;" width="61.846" height="2.625"/>
			<polygon style="fill:#390C1F;" points="405.406,387.001 355.459,387.001 362.308,354.625 412.255,354.625 			"/>
			<polygon style="fill:#F9665F;" points="311.461,328.479 314.506,343.111 325.574,346.327 329.999,341.559 327.787,329.171 			"/>
			<path style="fill:#390C1F;" d="M313.319,326.533c0.895,2.066,3.221,2.694,5.186,1.767c3.415-1.612,10.116-7.727,12.603-1.758
				c2.075,4.981-0.351,7.471-4.257,10.238c-3.906,2.767-9.551,1.626-12.208-2.075c-2.657-3.701-3.597-9.962-3.597-9.962l0.608-2.622
				C311.654,322.121,312.304,324.189,313.319,326.533z"/>
			<polygon style="fill:#F7DED5;" points="312.257,339.076 309.979,344.71 322.043,352 325.574,346.327 			"/>
			<polygon style="fill:#F7DED5;" points="330.239,336.226 325.574,346.327 329.538,349.786 334.113,340.022 			"/>
			<g>
				<polygon style="fill:#390C1F;" points="277.68,395.868 277.68,461.812 247.251,461.812 247.251,395.868 243.187,395.868 
					243.187,465.316 281.744,465.316 281.744,395.868 				"/>
			</g>
			<g>
				<polygon style="fill:#390C1F;" points="435.829,395.868 435.829,461.812 405.399,461.812 405.399,395.868 401.336,395.868 
					401.336,465.316 439.892,465.316 439.892,395.868 				"/>
			</g>
			<path style="fill:#5E5FAF;" d="M422.287,370.582c0,0-8.033-5.319-11.507-29.527C419.79,354.951,422.287,370.582,422.287,370.582z
				"/>
			<path style="fill:#5E5FAF;" d="M433.685,338.735c0,0-9.444,9.919-10.747,31.847C432.491,354.082,433.685,338.735,433.685,338.735
				z"/>
			<path style="fill:#727EDB;" d="M405.075,353.125c0,0,7.146,14.12,14.36,14.039C419.356,360.179,405.075,353.125,405.075,353.125z
				"/>
			<path style="fill:#727EDB;" d="M438.931,352.028c0,0-14.12,7.145-14.039,14.36C431.877,366.309,438.931,352.028,438.931,352.028z
				"/>
			<path style="fill:#727EDB;" d="M429.145,330.483c0,0-7.92,8.913-5.867,13.946C428.151,342.443,429.145,330.483,429.145,330.483z"
				/>
			<path style="fill:#727EDB;" d="M416.393,322.52c0,0,0.702,11.902,5.713,14.01C424.147,331.679,416.393,322.52,416.393,322.52z"/>
			<path style="fill:#727EDB;" d="M410.78,331.121c0,0,4.522,15.232,10.501,17.801C421.904,342.653,410.78,331.121,410.78,331.121z"
				/>
			<path style="fill:#727EDB;" d="M420.442,365.046c0,0-4.234-14.763-3.039-32.892C423.915,347.569,420.442,365.046,420.442,365.046
				z"/>
			<path style="fill:#5E5FAF;" d="M422.287,328.736c0,0-4.776,16.815,0,38.428C427.063,348.059,422.287,328.736,422.287,328.736z"/>
			<path style="fill:#727EDB;" d="M430.362,350.744c0,0-12.361,9.882-10.806,16.927
				C426.377,366.166,430.362,350.744,430.362,350.744z"/>
			<rect x="412.255" y="365.651" style="fill:#E3283D;" width="18.556" height="21.369"/>
			<g>
				<path style="fill:#5E5FAF;" d="M340.757,451.693c-0.553-3.345-1.078-6.694-1.567-10.048l-1.422-10.067l-1.295-10.085
					c-0.416-3.364-0.796-6.732-1.148-10.104c0.554,3.345,1.079,6.694,1.568,10.048l1.421,10.068l1.294,10.085
					C340.024,444.953,340.404,448.321,340.757,451.693z"/>
			</g>
			<g>
				<path style="fill:#5E5FAF;" d="M367.558,450.62c-0.101-3.269-0.174-6.538-0.211-9.808l-0.064-9.808l0.063-9.808
					c0.037-3.269,0.11-6.539,0.212-9.808c0.102,3.269,0.175,6.539,0.212,9.808l0.063,9.808l-0.064,9.808
					C367.732,444.082,367.659,447.351,367.558,450.62z"/>
			</g>
			<g>
				<path style="fill:#1C163B;" d="M310.36,377.457c-1.01,0.072-1.97,0.373-2.863,0.782c-0.89,0.422-1.716,0.964-2.47,1.595
					c-0.772,0.615-1.424,1.365-2.079,2.113c-0.32,0.382-0.606,0.792-0.915,1.187c-0.288,0.41-0.56,0.833-0.866,1.242
					c0.195-0.467,0.423-0.921,0.637-1.385c0.267-0.432,0.519-0.877,0.806-1.3c0.593-0.832,1.263-1.624,2.064-2.28
					c0.799-0.651,1.686-1.214,2.662-1.562C308.304,377.503,309.349,377.301,310.36,377.457z"/>
			</g>
			<g>
				<path style="fill:#1C163B;" d="M308.532,375.095c-0.362,0.003-0.714,0.042-1.058,0.127c-0.346,0.063-0.684,0.16-1.015,0.274
					c-0.661,0.23-1.303,0.512-1.92,0.845c-0.629,0.312-1.218,0.701-1.826,1.067l-1.787,1.196c0.229-0.281,0.484-0.538,0.727-0.81
					l0.81-0.728c0.565-0.458,1.169-0.875,1.821-1.213c0.651-0.335,1.338-0.621,2.064-0.764
					C307.065,374.943,307.829,374.876,308.532,375.095z"/>
			</g>
		</g>
		<g>
			<path style="fill:#FD7A6E;" d="M135.85,375.42c0,0-1.299,4.21-1.785,5.668c-0.486,1.457,1.263,2.623,2.915-1.36
				C138.631,375.744,135.85,375.42,135.85,375.42z"/>
			<path style="fill:#FD7A6E;" d="M138.243,378.27c0-4.566-0.583-8.161-0.583-8.161s-4.178-1.652-4.275,1.069
				c-0.049,1.36,0.559,2.915,1.182,4.214s1.264,2.344,1.282,2.684c0.036,0.68,0.547,6.996,1.81,6.704
				C138.923,384.488,138.243,382.837,138.243,378.27z"/>
			<path style="fill:#FCE9E2;" d="M126.504,315.008c0,0,7.146,0.726,10.787,34.019c1.533,16.812,1.341,21.603,1.341,21.603
				s-2.588,2.683-9.631,1.916C121.959,371.779,126.504,315.008,126.504,315.008z"/>
			<path style="fill:#1C163B;" d="M87.108,452.011c0,0-5.609,9.783-5.609,13.305c6.392,0,11.609,0,11.609,0v-13.305H87.108z"/>
			<path style="fill:#1C163B;" d="M121.065,452.011c0,0,5.609,9.783,5.609,13.305c-6.392,0-11.609,0-11.609,0v-13.305H121.065z"/>
			<path style="fill:#464292;" d="M75.39,367.563c0,0,3.258,32.962,5.749,50.977c2.491,18.014,4.408,34.719,4.408,34.719h7.857
				c0,0,9.692-50.341,12.183-60.61l8.898,60.61h7.857c0,0,6.75-54.841,8.453-66.148c1.704-11.307,2.087-20.314,2.087-20.314
				L75.39,367.563z"/>
			<path style="fill:#FCEBE4;" d="M92.446,302.98c0,0,6.516,7.091,16.481,8.432c3.641-2.683,4.216-4.216,4.216-4.216
				s16.14,7.857,17.652,12.265s5.728,28.938,4.962,36.412c-0.766,7.474-1.574,18.148-25.68,19.547
				c-22.468,1.304-35.3-2.061-37.888-13.664c-3.334-14.949-4.465-36.93,8.759-49.578C86.889,307.196,92.446,302.98,92.446,302.98z"
				/>
			<g>
				<g>
					<path style="fill:#EDD4CC;" d="M113.339,375.42l-0.495-15.974c-0.17-5.324-0.317-10.648-0.553-15.967
						c-0.223-5.315-0.402-10.653-1.015-15.92c-0.157-1.308-0.44-2.621-0.653-3.935c-0.221-1.315-0.436-2.63-0.627-3.949
						c-0.37-2.64-0.698-5.285-0.945-7.938c0.674,5.291,1.672,10.509,2.644,15.76c0.384,2.652,0.561,5.314,0.731,7.974
						c0.173,2.661,0.3,5.323,0.414,7.985c0.19,5.326,0.346,10.652,0.425,15.98C113.351,364.764,113.375,370.092,113.339,375.42z"/>
				</g>
				<path style="fill:#EDD4CC;" d="M114.15,346.488c0.103,0.526,0.612,0.869,1.138,0.766c0.526-0.103,0.869-0.612,0.766-1.138
					c-0.103-0.526-0.612-0.869-1.138-0.766C114.39,345.452,114.047,345.962,114.15,346.488z"/>
				<path style="fill:#EDD4CC;" d="M113.357,330.513c0.103,0.526,0.612,0.869,1.138,0.766c0.526-0.103,0.869-0.612,0.766-1.138
					c-0.103-0.526-0.612-0.869-1.138-0.766C113.598,329.478,113.254,329.987,113.357,330.513z"/>
				<path style="fill:#EDD4CC;" d="M110.902,314.863c0.103,0.526,0.612,0.869,1.138,0.766c0.526-0.103,0.869-0.612,0.766-1.138
					c-0.103-0.526-0.612-0.869-1.138-0.766C111.143,313.828,110.8,314.337,110.902,314.863z"/>
				<path style="fill:#EDD4CC;" d="M113.981,338.456c0.103,0.526,0.612,0.869,1.138,0.766c0.526-0.103,0.869-0.612,0.766-1.138
					c-0.103-0.526-0.612-0.869-1.138-0.766C114.221,337.421,113.878,337.93,113.981,338.456z"/>
				<path style="fill:#EDD4CC;" d="M115.036,361.943c0.103,0.526,0.612,0.869,1.138,0.766c0.526-0.103,0.869-0.612,0.766-1.138
					c-0.103-0.526-0.612-0.869-1.138-0.766C115.276,360.907,114.933,361.417,115.036,361.943z"/>
				<path style="fill:#EDD4CC;" d="M115.12,370.297c0.103,0.526,0.612,0.869,1.138,0.766c0.526-0.103,0.869-0.612,0.766-1.138
					c-0.103-0.526-0.612-0.869-1.138-0.766C115.36,369.261,115.018,369.771,115.12,370.297z"/>
				<path style="fill:#EDD4CC;" d="M114.866,353.911c0.103,0.526,0.612,0.869,1.138,0.766s0.869-0.612,0.766-1.138
					c-0.103-0.526-0.612-0.869-1.138-0.766C115.107,352.876,114.764,353.385,114.866,353.911z"/>
				<path style="fill:#EDD4CC;" d="M112.165,322.681c0.103,0.526,0.612,0.869,1.138,0.766c0.526-0.103,0.869-0.612,0.766-1.138
					c-0.103-0.526-0.612-0.869-1.138-0.766C112.405,321.646,112.062,322.155,112.165,322.681z"/>
			</g>
			<path style="fill:#FCE9E2;" d="M85.739,330.929c0,0,0.923-10.514-3.755-19.615c-11.193,5.161-17.517,19.454-16.751,29.036
				c0.767,9.582,7.857,10.948,13.798,10.936c5.941-0.012,11.499-5.378,11.499-5.378L85.739,330.929z"/>
			<rect x="84.589" y="322.01" style="fill:#390C1F;" width="20.653" height="29.945"/>
			<path style="fill:#FD7A6E;" d="M83.283,339.598c0,0-0.216-3.259,0.825-5.703c1.041-2.445,7.59-1.34,7.889,1.804
				c0.299,3.144-5.234,5.082-5.748,5.672c-0.513,0.59-0.909,4.437-2.153,4.668C82.852,346.27,83.283,339.598,83.283,339.598z"/>
			<path style="fill:#390C1F;" d="M93.5,294.314c0,0-4.897-0.66-2.97-6.008c-4.204-2.348-2.579-7.044,0-7.827
				c-1.987-2.609-0.244-4.435,1.363-3.652c-1.654-4.826,4.897-6.653,6.969-4.174c0.768-4.957,7.361-5.87,10.065-2.087
				c2.704-2.087,5.182,1.826,5.182,1.826s4.672-1.957,5.662,3.783c4.904,3.392,0.99,6.642,0.99,6.642s2.478,5.098-3.652,6.141
				C109.675,288.045,93.5,294.314,93.5,294.314z"/>
			<path style="fill:#F9665F;" d="M94.674,295.741l-1.304,7.239c0,0,7.647,10.742,15.558,8.432c2.704-0.931,3.878-6.149,3.878-6.149
				l-0.39-3.821L94.674,295.741z"/>
			<path style="fill:#FD7A6E;" d="M96.892,291.436c0,0-1.435-2.348-4.044-1.174c-2.609,1.174-1.696,5.87,2.022,6.392
				c2.413,5.087,7.37,9.157,14.936,9.157c7.566,0,11.609-10.07,7.957-20.245c-2.478,0.783-3.131-1.435-3.131-1.435
				s-2.609,2.197-4.565-1.315c-2.739,3.141-5.93,1.445-5.93,1.445s-0.592,2.087-2.679,1.044
				C100.935,290.001,98.848,291.566,96.892,291.436z"/>
			<path style="fill:#F7DED5;" d="M92.511,299.651l-4.442,5.114l16.068,11.71c0.582,0.006,4.791-5.063,4.791-5.063L92.511,299.651z"
				/>
			<polygon style="fill:#F7DED5;" points="112.805,305.263 108.928,311.412 112.805,314.133 116.195,308.063 			"/>
			<path style="fill:#1C163B;" d="M185.756,452.011c0,0,5.609,9.783,5.609,13.305c-6.392,0-11.609,0-11.609,0v-13.305H185.756z"/>
			<path style="fill:#1C163B;" d="M164.33,452.011h-5.74c0,0-1.957,3.783-7.435,7.957c-5.479,4.174-5.218,5.348-5.218,5.348h19.175
				C165.113,465.316,165.635,458.663,164.33,452.011z"/>
			<path style="fill:#727CCB;" d="M151.43,310.572c0,0-8.074,1.955-7.536,8.773s-2.512,18.481-2.512,18.481h-8.792l-1.794,10.846
				c0,0,8.615,2.613,14.894,2.613S151.43,310.572,151.43,310.572z"/>
			<path style="fill:#464292;" d="M147.312,371.573c0,0,1.686,31.207,9.777,81.686c5.057,0,8.429,0,8.429,0l2.023-51.919
				l11.126,51.919h9.103c0,0-3.372-47.633-2.023-81.686C165.181,369.55,157.089,368.201,147.312,371.573z"/>
			<g>
				<defs>
					<path id="XMLID_12_" d="M162.196,306.746c0,0-7.357,2.589-10.766,3.826c-3.409,1.237-2.854,3.032-4.118,13.977
						c-1.264,10.945-2.7,54.624-2.7,54.624s9.689,1.537,13.098-5.999c11.484,9.274,31.759,4.486,31.759,4.486
						s1.615-31.4,2.153-49.522c0.538-18.122,1.435-19.601-4.845-20.925c-6.28-1.324-12.49-1.401-12.49-1.401
						S167.579,310.116,162.196,306.746z"/>
				</defs>
				<use xlink:href="#XMLID_12_"  style="overflow:visible;fill:#5E5FAF;"/>
				<clipPath id="XMLID_00000155126785708736717860000008377844571677186972_">
					<use xlink:href="#XMLID_12_"  style="overflow:visible;"/>
				</clipPath>
				
					<rect x="137.736" y="358.54" transform="matrix(0.9455 -0.3255 0.3255 0.9455 -109.572 66.7286)" style="clip-path:url(#XMLID_00000155126785708736717860000008377844571677186972_);fill:#464292;" width="13.751" height="4.493"/>
			</g>
			<path style="fill:#F9665F;" d="M174.288,289.219v16.592c0,0-8.603,8.214-9.566,8.322c-0.891,0.1-2.526-7.387-2.526-7.387
				c0-6.958,0-10.368,0-10.368L174.288,289.219z"/>
			<path style="fill:#FD7A6E;" d="M170.45,268.388c0,0-5.383-3.948-11.125-1.256c-5.742,2.691-5.203,10.945-5.203,20.814
				c0,9.869,2.333,11.663,8.074,11.484c5.742-0.179,11.004-6.95,11.004-6.95s4.36,1.418,5.479-4.174
				c0.913-4.565-3.026-4.31-3.026-4.31S179.062,274.309,170.45,268.388z"/>
			<path style="fill:#FCEBE4;" d="M160.403,313.481c0,0-5.437,15.619-0.848,27.205c9.264-15.449,14.733-27.205,14.733-27.205
				S164.219,314.868,160.403,313.481z"/>
			<g>
				<path style="fill:#1C163B;" d="M159.554,340.686c-0.775,2.614-1.126,5.323-1.42,8.021c-0.272,2.703-0.47,5.416-0.522,8.136
					c-0.121,2.717-0.094,5.438-0.086,8.16l0.183,8.171l-0.375-4.074l-0.232-4.086c-0.096-2.727-0.119-5.458-0.041-8.189
					c0.098-2.729,0.288-5.459,0.653-8.168C158.098,345.957,158.561,343.236,159.554,340.686z"/>
			</g>
			<polygon style="fill:#464292;" points="162.196,306.746 159.554,340.686 153.243,328.057 155.069,322.612 152.33,321.046 
				154.108,309.61 			"/>
			<polygon style="fill:#464292;" points="175.237,302.98 181.061,306.297 177.261,321.177 172.939,323.003 174.288,329.003 
				159.554,340.686 			"/>
			<polygon style="fill:#1C163B;" points="162.895,313.481 162.895,320.916 165.684,320.916 168.242,314.524 			"/>
			<polygon style="fill:#1C163B;" points="160.403,329.785 162.895,320.916 165.684,320.916 165.614,326.118 163.044,332.135 			"/>
			<path style="fill:#390C1F;" d="M172.753,283.845c0,0-2.066,6.517-4.402,7.069c-2.335,0.552-10.155,0.773-14.143,0
				c-1.116,2.872,0.032,5.081-0.1,7.621c-0.132,2.54,2.251,7.094,10.614,5.204c8.363-1.89,8.479-11.26,8.479-11.26l1.087-8.192
				L172.753,283.845z"/>
			<path style="fill:#FD7A6E;" d="M159.554,295.741c-3.368,2.617-3.48-2.176-2.251-2.176c1.229,0,3.559,0,3.559,0s3.167,0,3.859,0
				s-0.814,5.234-3.043,2.218C161.565,295.784,159.554,295.741,159.554,295.741z"/>
			<path style="fill:#390C1F;" d="M121.107,349.045c4.845,0.273,20.993-1.708,20.993-1.708l-4.306-30.862l-21.89,2.106
				L121.107,349.045z"/>
			<path style="fill:#FD7A6E;" d="M117.339,337.109c0,0-1.435-1.953-1.435-6.18c0-4.227,3.23-5.161,3.768-4.604
				c0.538,0.557-1.659,4.604-1.659,4.604s3.812-2.932,4.171-1.516c0.359,1.416-3.14,4.646-3.14,4.646s4.748-0.41,4.594,0.976
				c-0.154,1.387-4.236,1.618-4.236,1.618s3.774-0.858,3.851,0.457C123.329,338.424,118.387,339.756,117.339,337.109z"/>
			<path style="fill:#FD7A6E;" d="M169.194,332.444c0,0-7.357-4.343-10.228-6.119c-2.871-1.776-9.851,0.574-11.654,1.732
				c-1.803,1.157-3.333,2.482-1.982,3.354s4.868-2.197,6.112-1.12c1.244,1.077,1.424,6.818,3.756,6.818c2.333,0,12.343,0,12.343,0
				L169.194,332.444z"/>
			<path style="fill:#727CCB;" d="M187.77,307.441c0,0-9.067,3.977-7.093,23.91c-9.151-0.522-13.136-1.06-13.136-1.06l-1.857,11.304
				c0,0,9.882,5.551,17.505,6.639c7.623,1.088,10.048,0.488,11.842-5.677C196.826,336.391,198.824,308.969,187.77,307.441z"/>
			<polygon style="fill:#F7DED5;" points="162.196,304.219 157.004,308.585 159.6,317.655 164.722,314.133 			"/>
			<polygon style="fill:#F7DED5;" points="175.08,300.785 164.722,314.133 169.505,318.959 179.472,305.351 			"/>
			<path style="fill:#390C1F;" d="M154.395,276.15c0,0-3.734-13.647,11.289-9.957c10.572,2.119,12.795,9.262,10.699,17.854
				c-3.007,1.805-3.007,1.805-3.007,1.805l-0.624-2.006c0,0,0.932-9.382-6.29-12.654
				C159.633,270.798,155.703,272.469,154.395,276.15z"/>
			<g>
				<path style="fill:#1C163B;" d="M180.677,331.351c1.011-0.156,2.056,0.046,3.024,0.393c0.976,0.348,1.863,0.911,2.662,1.562
					c0.801,0.656,1.471,1.448,2.064,2.28c0.287,0.423,0.539,0.868,0.806,1.3c0.214,0.464,0.441,0.918,0.637,1.385
					c-0.306-0.409-0.577-0.831-0.866-1.242c-0.309-0.396-0.595-0.806-0.915-1.187c-0.655-0.748-1.307-1.497-2.079-2.113
					c-0.754-0.631-1.58-1.173-2.47-1.595C182.647,331.725,181.687,331.423,180.677,331.351z"/>
			</g>
			<g>
				<path style="fill:#1C163B;" d="M185.273,331.298c0.703-0.218,1.467-0.152,2.184-0.007c0.726,0.143,1.413,0.429,2.064,0.764
					c0.652,0.338,1.256,0.755,1.821,1.213l0.81,0.728c0.243,0.272,0.498,0.529,0.727,0.81l-1.787-1.196
					c-0.609-0.366-1.197-0.756-1.826-1.067c-0.617-0.333-1.259-0.615-1.92-0.845c-0.331-0.113-0.669-0.21-1.015-0.273
					C185.987,331.339,185.636,331.301,185.273,331.298z"/>
			</g>
			<g>
				<path style="fill:#1C163B;" d="M170.308,330.59c-0.055,1.049-0.169,2.089-0.292,3.127c-0.117,1.039-0.277,2.072-0.437,3.104
					c-0.173,1.03-0.347,2.06-0.563,3.083c-0.211,1.024-0.43,2.047-0.709,3.06c0.054-1.049,0.168-2.089,0.291-3.127
					c0.117-1.039,0.277-2.071,0.438-3.104c0.174-1.03,0.347-2.06,0.564-3.083C169.81,332.626,170.029,331.603,170.308,330.59z"/>
			</g>
			
				<rect x="166.819" y="358.234" transform="matrix(0.9556 0.2948 -0.2948 0.9556 113.9716 -35.1824)" style="fill:#464292;" width="13.751" height="4.493"/>
			<g>
				<path style="fill:#1C163B;" d="M164.002,384.79c0.431,1.349,0.767,2.72,1.109,4.089c0.34,1.37,0.629,2.75,0.945,4.125
					c0.272,1.384,0.567,2.763,0.816,4.152c0.249,1.389,0.489,2.78,0.669,4.183c-0.404-1.356-0.748-2.725-1.083-4.095
					c-0.335-1.371-0.626-2.751-0.94-4.126c-0.271-1.384-0.568-2.763-0.819-4.151C164.443,387.58,164.211,386.188,164.002,384.79z"/>
			</g>
			<g>
				<path style="fill:#5E5FAF;" d="M89.682,453.259c0.262-5.159,0.551-10.316,0.877-15.471l1.023-15.461l1.15-15.452
					c0.399-5.15,0.835-10.296,1.299-15.441c-0.261,5.159-0.55,10.316-0.876,15.471l-1.024,15.461l-1.151,15.452
					C90.58,442.967,90.145,448.114,89.682,453.259z"/>
			</g>
			<g>
				<path style="fill:#5E5FAF;" d="M118.301,453.259c-0.227-5.15-0.426-10.3-0.589-15.451l-0.442-15.454l-0.315-15.458
					c-0.089-5.153-0.142-10.307-0.166-15.461c0.228,5.15,0.427,10.3,0.59,15.451l0.441,15.454l0.314,15.458
					C118.223,442.951,118.276,448.104,118.301,453.259z"/>
			</g>
			<g>
				<path style="fill:#5E5FAF;" d="M160.949,453.259c-0.486-5.699-0.945-11.4-1.368-17.103l-1.221-17.113l-1.094-17.122
					c-0.349-5.708-0.662-11.419-0.946-17.132c0.487,5.699,0.946,11.4,1.369,17.103l1.221,17.113l1.093,17.122
					C160.351,441.836,160.664,447.546,160.949,453.259z"/>
			</g>
			<g>
				<path style="fill:#5E5FAF;" d="M183.395,453.259c-0.803-5.693-1.578-11.39-2.317-17.092l-2.172-17.109l-2.045-17.125
					c-0.666-5.71-1.296-11.425-1.898-17.143c0.804,5.693,1.579,11.39,2.318,17.091l2.171,17.109l2.044,17.125
					C182.163,441.826,182.793,447.541,183.395,453.259z"/>
			</g>
			<g>
				<path style="fill:#EDD4CC;" d="M69.109,348.673c0.985,1.057,2.078,2,3.257,2.791c1.182,0.78,2.468,1.419,3.843,1.66
					c0.344,0.041,0.687,0.117,1.032,0.136l1.041-0.032c0.679-0.131,1.372-0.251,2.005-0.563c0.676-0.218,1.24-0.659,1.844-1.036
					c0.59-0.4,1.086-0.925,1.66-1.372c-0.483,0.532-0.947,1.102-1.493,1.585c-0.587,0.433-1.144,0.927-1.837,1.21
					c-1.313,0.677-2.886,0.909-4.354,0.615c-1.464-0.304-2.818-0.976-3.987-1.856C70.959,350.921,69.92,349.876,69.109,348.673z"/>
			</g>
			<g>
				<path style="fill:#EDD4CC;" d="M82.426,334.806l-2.261,1.286c-0.753,0.414-1.492,0.846-2.315,1.207
					c0.278-0.355,0.603-0.659,0.947-0.939c0.339-0.288,0.716-0.524,1.099-0.749c0.392-0.209,0.792-0.406,1.218-0.541
					C81.537,334.933,81.972,334.816,82.426,334.806z"/>
			</g>
			<g>
				<path style="fill:#EDD4CC;" d="M78.353,328.057c0.279,0.628,0.486,1.277,0.675,1.93c0.195,0.653,0.339,1.318,0.467,1.986
					c0.114,0.671,0.22,1.345,0.251,2.03c0.037,0.682,0.049,1.371-0.064,2.05c-0.231-1.347-0.482-2.655-0.729-3.981
					c-0.112-0.663-0.242-1.325-0.337-1.994C78.514,329.41,78.412,328.74,78.353,328.057z"/>
			</g>
			<g>
				<path style="fill:#EDD4CC;" d="M132.201,349.07c0.644,1.285,1.108,2.656,1.483,4.046c0.372,1.393,0.596,2.824,0.745,4.26
					c0.118,1.44,0.11,2.893-0.049,4.329c-0.139,1.44-0.514,2.847-0.998,4.195c0.101-0.715,0.314-1.397,0.364-2.112l0.143-1.056
					l0.069-1.063c0.069-1.415,0.082-2.835-0.077-4.245c-0.102-1.414-0.329-2.817-0.608-4.211
					C132.988,351.82,132.632,350.438,132.201,349.07z"/>
			</g>
		</g>
		<g>
			<rect x="69.094" y="148.292" style="fill:#49172E;" width="59.944" height="12.789"/>
			<path style="fill:#FD7A6E;" d="M185.523,101.366l-13.16,18.41c0,0-7.61-1.569-8.227,1.096c8.432,2.254,11.722,2.871,11.722,2.871
				l12.876-15.489L185.523,101.366z"/>
			<rect x="154.424" y="190.821" style="fill:#390C1F;" width="3.686" height="23.59"/>
			<path style="fill:#390C1F;" d="M154.421,160.594c0,0-11.963-2.175-16.868,0c-6.81,3.02-9.493,6.95-9.493,23.628
				c3.825,0,3.762-0.27,3.759-0.277c-1.449-4.443,0.608-12.807,3.524-16.357c3.982-4.847,12.876-3.676,18.353-2.794L154.421,160.594
				z"/>
			<g>
				<path style="fill:#390C1F;" d="M124.796,184.841c0.491,1.395,1.773,2.551,3.16,3.053c5.141,1.858,15.912,2.927,28.31,2.927
					c1.89,0,3.745-0.054,5.541-0.154c9.982-0.558,18.107-2.562,20.031-4.836c0.398-0.47,0.852-1.778,1.346-3.686
					C166.019,191.415,133.757,186.465,124.796,184.841z"/>
				<path style="fill:#E3283D;" d="M165.975,120.726c-4.587-0.52-8.41-0.354-11.517,0.137c-6.164,0.974-10.641,6.374-10.466,12.612
					l1.057,37.67c0.138,4.931-3.88,8.973-8.811,8.865c-2.703-0.06-5.847-0.72-8.408-0.101c-1.193,0.288-2.274,1.014-2.839,2.103
					c-0.503,0.969-0.505,1.946-0.195,2.828c8.96,1.624,41.223,6.575,58.389-2.695c2.325-8.982,5.521-31.305,7.734-42.539
					C193.601,125.987,181.426,122.479,165.975,120.726z"/>
			</g>
			<path style="fill:#390C1F;" d="M186.738,163.826c0,0-11.963-2.175-16.868,0c-6.81,3.02-9.493,6.95-9.493,23.628
				c3.825,0,3.762-0.27,3.759-0.277c-1.448-4.443,0.608-12.807,3.524-16.357c3.982-4.847,12.876-3.676,18.353-2.794L186.738,163.826
				z"/>
			<path style="fill:#29235E;" d="M221.769,223.389c-3.612-4.746-4.473-10.419-4.473-10.419l-2.645-1.137
				c-4.539,14.858-0.83,21.974-0.83,21.974h8.932C222.754,233.807,225.381,228.135,221.769,223.389z"/>
			<path style="fill:#1C163B;" d="M221.769,212.039c0,0,0.723,5.984-2.373,10.525c-3.095,4.54-3.026,11.244-3.026,11.244h8.843
				c0,0,5.089-3.361,3.675-12.712c-1.413-9.351-4.498-10.294-4.498-10.294L221.769,212.039z"/>
			<path style="fill:#5E5FAF;" d="M212.875,212.361c0,0,2.057,1.818,5.141,1.732c2.056-6.667,3.702-11.809,3.702-11.809
				l-6.441-6.182L212.875,212.361z"/>
			<path style="fill:#390C1F;" d="M226.623,58.324c0,0,6.644,2.362,5.805,9.719c-0.839,7.357,7.798,4.593,2.451,17.594
				c-26.94,0-26.94,0-26.94,0s-3.702-9.322,2.879-17.594C217.399,59.771,226.623,58.324,226.623,58.324z"/>
			<g>
				<path style="fill:#727CCB;" d="M218.035,200.916c-0.174,0.943-0.405,1.869-0.645,2.792c-0.234,0.925-0.509,1.836-0.785,2.748
					c-0.288,0.908-0.577,1.815-0.907,2.71c-0.324,0.897-0.657,1.791-1.048,2.666c0.173-0.944,0.404-1.869,0.644-2.792
					c0.234-0.924,0.509-1.836,0.785-2.748c0.289-0.908,0.577-1.815,0.907-2.71C217.312,202.686,217.645,201.793,218.035,200.916z"/>
			</g>
			<g>
				<defs>
					<path id="XMLID_2_" d="M205.83,80.336c-2.804,0-5.436,1.339-7.083,3.608c-3.788,5.218-10.436,14.316-11.167,14.9
						c-1.028,0.823-3.085,1.334-1.851,4.677c1.234,3.343,2.262,9.101,3.702,5.194c1.439-3.907,11.928-15.012,11.928-15.012
						s-1.234,7.092,0.617,9.818c1.851,2.726,5.347,7.251,3.702,8.896c-1.645,1.645,1.851,4.73,1.851,4.73s8.431,4.936,17.686,0
						c2.262-3.29,0.617-5.964,2.879-9.46c2.262-3.496,4.335-7.849,4.335-7.849s5.742,17.994,5.947,19.502
						c0.206,1.508,5.141,1.742,5.553-4.339c0.411-6.081-3.702-26.856-4.73-29.424c-1.028-2.568-14.807-5.242-14.807-5.242H205.83z"
						/>
				</defs>
				<use xlink:href="#XMLID_2_"  style="overflow:visible;fill:#FCEBE4;"/>
				<clipPath id="XMLID_00000044857557173184405910000014127084252732485291_">
					<use xlink:href="#XMLID_2_"  style="overflow:visible;"/>
				</clipPath>
				<g style="clip-path:url(#XMLID_00000044857557173184405910000014127084252732485291_);">
					<g>
						<path style="fill:#EDD4CC;" d="M218.541,82.986c-0.517,2.913-0.965,5.835-1.381,8.758c-0.391,2.926-0.768,5.856-0.925,8.797
							c-0.186,2.928-0.09,5.903-0.258,8.858c-0.133,2.957-0.354,5.911-0.701,8.85c0.143-2.955,0.219-5.91,0.278-8.863l0.048-4.43
							c-0.004-1.471-0.004-2.967,0.084-4.448c0.204-2.963,0.575-5.906,1.058-8.828C217.233,88.76,217.827,85.858,218.541,82.986z"/>
					</g>
					<path style="fill:#EDD4CC;" d="M216.649,84.609c0-0.536-0.434-0.97-0.97-0.97s-0.97,0.434-0.97,0.97s0.434,0.97,0.97,0.97
						S216.649,85.145,216.649,84.609z"/>
					<path style="fill:#EDD4CC;" d="M214.366,100.439c0-0.536-0.434-0.97-0.97-0.97c-0.536,0-0.97,0.434-0.97,0.97
						c0,0.536,0.434,0.97,0.97,0.97C213.932,101.41,214.366,100.975,214.366,100.439z"/>
					<path style="fill:#EDD4CC;" d="M213.776,116.27c0-0.536-0.434-0.97-0.97-0.97c-0.536,0-0.97,0.434-0.97,0.97
						c0,0.536,0.434,0.97,0.97,0.97C213.342,117.24,213.776,116.805,213.776,116.27z"/>
					<path style="fill:#EDD4CC;" d="M215.276,92.524c0-0.536-0.434-0.97-0.97-0.97c-0.536,0-0.97,0.434-0.97,0.97
						c0,0.536,0.434,0.97,0.97,0.97C214.842,93.494,215.276,93.06,215.276,92.524z"/>
					<path style="fill:#EDD4CC;" d="M214.035,108.354c0-0.536-0.434-0.97-0.97-0.97c-0.536,0-0.97,0.434-0.97,0.97
						c0,0.536,0.434,0.97,0.97,0.97C213.601,109.325,214.035,108.89,214.035,108.354z"/>
				</g>
			</g>
			<path style="fill:#5E5FAF;" d="M221.1,214.007c0,0-2.973-9.21-6.429-19.75c-3.161-9.641-6.726-20.395-8.789-26.231
				c-4.319-12.217-10.785-31.109-0.149-53.024c5.084,4.819,19.48,2.145,19.48,2.145s5.964,8.843,5.347,27.762
				c-0.617,18.92-5.347,48.122-5.347,48.122l2.262,18.714C227.476,211.744,226.447,214.623,221.1,214.007z"/>
			<g>
				<path style="fill:#727CCB;" d="M223.901,213.994c-1.457-6.162-2.887-12.329-4.281-18.505l-4.138-18.536l-4.013-18.564
					c-1.322-6.191-2.609-12.39-3.868-18.596c1.458,6.161,2.887,12.329,4.282,18.505l4.137,18.537l4.012,18.564
					C221.355,201.59,222.642,207.789,223.901,213.994z"/>
			</g>
			<g>
				<path style="fill:#727CCB;" d="M224.391,141.619c-0.095,2.905-0.251,5.806-0.415,8.706l-0.561,8.695l-0.688,8.686
					c-0.253,2.894-0.514,5.787-0.837,8.675c0.094-2.905,0.25-5.806,0.414-8.706l0.562-8.695l0.689-8.686
					C223.808,147.4,224.069,144.507,224.391,141.619z"/>
			</g>
			<path style="fill:#F9665F;" d="M224.185,65.022l0.206,15.313c0,0-6.581,5.964-11.516,0c-0.411-7.403,0-13.573,0-13.573
				l10.989-0.79"/>
			<path style="fill:#FD7A6E;" d="M247.629,99.461c0,0-9.403,12.585-9.534,18.734c0.691,3.476,4.598,5.149,7.889-3.194
				c3.29-8.343,3.907-13.073,3.907-13.073L247.629,99.461z"/>
			<rect x="244.956" y="90.001" style="fill:#FCEBE4;" width="11.311" height="15.629"/>
			<path style="fill:#390C1F;" d="M216.371,49.283c0,0-5.347,5.758-8.431,9.665s-6.581,8.226,0,15.424
				c-9.46-2.879-13.984-29.819,9.357-32.081c11.208-0.617,11.825,17.48,7.918,21.593C225.008,54.218,216.371,49.283,216.371,49.283z
				"/>
			<g>
				<path style="fill:#1C163B;" d="M225.214,193.03c-0.995-4.404-1.952-8.816-2.865-13.237c-0.919-4.419-1.786-8.85-2.66-13.279
					c-0.828-4.438-1.677-8.872-2.438-13.322c-0.755-4.45-1.507-8.907-1.975-13.4c0.322,2.234,0.717,4.455,1.143,6.672l1.249,6.652
					l2.562,13.294l2.533,13.301C223.603,184.146,224.416,188.587,225.214,193.03z"/>
			</g>
			<path style="fill:#FD7A6E;" d="M216.371,49.283c0,0-11.927,6.581-9.871,13.984c2.057,7.403,4.936,12.755,9.871,12.033
				c4.936-0.722,7.815-10.277,7.815-10.277s3.309-0.356,2.785-5.066c-0.523-4.71-2.885-1.633-2.885-1.633
				S221.717,50.311,216.371,49.283z"/>
			<rect x="44.65" y="159.627" style="fill:#46428F;" width="198.21" height="8.399"/>
			<g>
				<polygon style="fill:#390C1F;" points="82.627,168.026 82.627,230.489 53.804,230.489 53.804,168.026 49.955,168.026 
					49.955,233.807 86.476,233.807 86.476,168.026 				"/>
			</g>
			<g>
				<polygon style="fill:#390C1F;" points="232.427,168.026 232.427,230.489 203.604,230.489 203.604,168.026 199.755,168.026 
					199.755,233.807 236.277,233.807 236.277,168.026 				"/>
			</g>
			<rect x="69.094" y="97.816" style="fill:#390C1F;" width="59.944" height="38.668"/>
			<rect x="94.47" y="108.144" style="fill:#49172E;" width="8.666" height="38.298"/>
			<rect x="88.535" y="146.442" style="fill:#390C1F;" width="20.537" height="1.85"/>
			<rect x="150.717" y="212.97" style="fill:#390C1F;" width="11.099" height="16.251"/>
			<rect x="141.241" y="229.22" style="fill:#390C1F;" width="30.052" height="4.587"/>
			<polygon style="fill:#F7DED5;" points="212.692,78.281 209.529,80.336 216.644,86.411 218.541,82.986 			"/>
			<polygon style="fill:#F7DED5;" points="224.391,78.281 218.541,82.986 220.404,86.411 227.027,80.898 			"/>
		</g>
		<g>
			<path style="fill:#1C163B;" d="M311.727,228.402c-0.721-1.531-1.982-7.747-1.982-7.747h-5.225
				c-2.252,8.017-1.892,13.152-1.892,13.152h10.089C312.718,233.807,312.448,229.934,311.727,228.402z"/>
			<path style="fill:#1C163B;" d="M339.743,226.511c-2.612-1.982-5.855-7.297-5.855-7.297h-4.234
				c-2.793,9.098-1.171,14.593-1.171,14.593s9.279,0,16.575,0C345.058,228.673,342.355,228.492,339.743,226.511z"/>
			<path style="fill:#390C1F;" d="M317.631,39.535c0,0-3.282,0.234-4.22,3.751c-5.393,2.11-3.517,8.675-3.517,8.675
				s-1.722,5.158,3.711,7.503c7.074,1.876,19.118-9.964,19.118-9.964s4.814-2.139,1.777-7.224c1.653-5.554-5.85-6.257-5.85-6.257
				S323.258,31.329,317.631,39.535z"/>
			<path style="fill:#390C1F;" d="M435.728,46.734c0,0-10.587-2.337-14.712,6.599c-4.125,8.937-1.16,19.386,3.476,23.923
				c4.636,4.537,8.859,7.974,15.959,4.537C447.552,78.356,457.176,50.446,435.728,46.734z"/>
			<path style="fill:#29235E;" d="M440.668,214.181l-3.792,1.609c0,0-0.539,5.492-4.417,9.364s-3.423,8.596-3.423,8.596l17.4-7.384
				C446.436,226.367,446.226,223.169,440.668,214.181z"/>
			<rect x="354.589" y="91.63" style="fill:#390C1F;" width="48.686" height="39.025"/>
			<rect x="356.265" y="93.305" style="fill:#FCEBE4;" width="45.335" height="35.673"/>
			<rect x="374.809" y="130.655" style="fill:#49172E;" width="8.246" height="8.246"/>
			<rect x="364.404" y="138.901" style="fill:#390C1F;" width="29.057" height="2.721"/>
			<rect x="345.959" y="141.621" style="fill:#46428F;" width="65.947" height="6.314"/>
			<rect x="364.404" y="147.935" style="fill:#390C1F;" width="29.057" height="85.872"/>
			<path style="fill:#F7DED5;" d="M421.429,97.41c0,0-1.512,6.352-6.187,9.019c-4.675,2.667-9.074,5.632-10.862,6.281
				c-1.787,0.649-3.575,1.061-4.95,3.948c3.712,2.612,4.537,3.27,4.537,3.27l4.366-2.06c0,0,2.01,2.31,3.566,0
				c1.143-1.073,9.805,0.715,12.004-4.51C426.104,108.134,421.429,97.41,421.429,97.41z"/>
			<path style="fill:#464292;" d="M422.865,119.928c0,0-0.772,5.149,0,9.783c-3.09,17.25-5.633,40.444-1.686,51.257
				c3.948,10.813,15.331,35.763,15.331,35.763s2.832,1.802,4.892-3.089c0-18.022-14.16-35.529-14.16-35.529l8.753-31.925
				l-4.119-28.32L422.865,119.928z"/>
			<rect x="375.46" y="113.706" style="fill:#464292;" width="11.589" height="11.589"/>
			<rect x="388.579" y="113.706" style="fill:#727CCB;" width="9.764" height="11.589"/>
			<path style="fill:#464292;" d="M428.527,118.634l12.874-2.825l3.568,7.358c3.724,7.68,5.155,16.268,4.127,24.741
				c-1.4,11.549-3.347,26.551-2.546,29.433c1.287,4.634,5.149,11.586-1.545,42.995h-4.119c0,0-0.772-30.122-5.664-52.264
				c-2.469-11.176-4.152-23.665-5.212-33.295"/>
			<path style="fill:#FD7A6E;" d="M430.01,134.778"/>
			<rect x="406.305" y="98.106" style="fill:#FCEBE4;" width="11.189" height="16.645"/>
			<g>
				<defs>
					<path id="XMLID_5_" d="M427.478,79.536c0,0-3.162-0.687-4.4,3.987c-1.237,4.675-3.437,9.624-3.712,12.512
						c-0.275,2.887,3.498,23.894,3.498,23.894c6.653,0.61,12.771-1.016,18.537-4.119l7.428-34.348L427.478,79.536z"/>
				</defs>
				<use xlink:href="#XMLID_5_"  style="overflow:visible;fill:#FCEBE4;"/>
				<clipPath id="XMLID_00000150789870478205771480000005568205981707078058_">
					<use xlink:href="#XMLID_5_"  style="overflow:visible;"/>
				</clipPath>
				<g style="clip-path:url(#XMLID_00000150789870478205771480000005568205981707078058_);">
					<g>
						<path style="fill:#EDD4CC;" d="M430.996,84.761c-0.321,2.941-0.573,5.887-0.792,8.831c-0.195,2.945-0.375,5.894-0.335,8.84
							c0.01,2.934,0.305,5.896,0.335,8.856c0.065,2.96,0.042,5.922-0.108,8.877c-0.054-2.958-0.177-5.911-0.316-8.862l-0.248-4.423
							c-0.102-1.468-0.202-2.96-0.214-4.444c0.006-2.97,0.179-5.931,0.465-8.879C430.077,90.609,430.475,87.674,430.996,84.761z"/>
					</g>
					<path style="fill:#EDD4CC;" d="M429.216,86.506c-0.036-0.535-0.498-0.939-1.033-0.903c-0.535,0.036-0.939,0.498-0.903,1.033
						s0.498,0.939,1.033,0.903C428.848,87.503,429.252,87.041,429.216,86.506z"/>
					<path style="fill:#EDD4CC;" d="M427.996,102.454c-0.036-0.535-0.498-0.939-1.033-0.903c-0.535,0.036-0.939,0.498-0.903,1.033
						c0.036,0.535,0.498,0.939,1.033,0.903C427.628,103.451,428.032,102.988,427.996,102.454z"/>
					<path style="fill:#EDD4CC;" d="M428.466,118.288c-0.036-0.535-0.498-0.939-1.033-0.903c-0.535,0.036-0.939,0.498-0.903,1.033
						s0.498,0.939,1.033,0.903C428.098,119.285,428.502,118.823,428.466,118.288z"/>
					<path style="fill:#EDD4CC;" d="M428.375,94.495c-0.036-0.535-0.498-0.939-1.033-0.903c-0.535,0.036-0.939,0.498-0.903,1.033
						c0.036,0.535,0.498,0.939,1.033,0.903C428.007,95.493,428.411,95.03,428.375,94.495z"/>
					<path style="fill:#EDD4CC;" d="M428.195,110.373c-0.036-0.535-0.498-0.939-1.033-0.903c-0.535,0.036-0.939,0.498-0.903,1.033
						c0.036,0.535,0.498,0.939,1.033,0.903S428.231,110.908,428.195,110.373z"/>
				</g>
			</g>
			<path style="fill:#FD7A6E;" d="M426.654,106.897l-4.537-0.825c0,0-3.025-2.337-6.875-1.1c-3.85,1.237-7.287,2.2-6.875,3.712
				c0.413,1.512,2.612,3.437,6.6,3.712c3.987,0.275,4.116,0.826,6.457-0.824c2.342-1.651,5.229-1.101,5.229-1.101V106.897z"/>
			<path style="fill:#F9665F;" d="M440.452,64.825v15.881c0,0-2.931,3.643-9.74,4.055c-1.309-2.75-0.878-5.012-0.878-5.012v-8.462
				L440.452,64.825z"/>
			<path style="fill:#FD7A6E;" d="M401.905,116.383c0,0-6.875,0.688-9.487,0.688c-2.612,0-6.05,1.925-9.074,4.537
				c-3.025,2.612,0.688,2.612,5.087,0c3.437,2.887,4.675,3.369,7.7,1.959c3.025-1.409,7.144-4.159,7.144-4.159L401.905,116.383z"/>
			<path style="fill:#464292;" d="M305.204,143.4c0,0-0.469,17.584,0,36.341c0.469,18.757-1.641,41.809-1.641,41.809h7.737
				l11.957-71.351l3.986,71.351h8.675l4.22-78.15H305.204z"/>
			<path style="fill:#727CCB;" d="M338.13,79.5c0,0,3.884,1.534,5.526,11.615c1.641,10.082,6.721,13.721,4.376,17.488
				c-2.345,3.768-8.831,2.424-8.831,2.424L338.13,79.5z"/>
			<path style="fill:#5E5FAF;" d="M315.521,74.793c0,0-9.847,5.219-11.957,6.668c-2.11,1.449-2.814,38.259-2.579,47.168
				c0.234,8.909-0.043,16.412-0.043,16.412s9.89,2.813,22.785,2.11c8.909-0.703,10.785-3.751,10.785-3.751s3.517,4.924,7.972,1.876
				c-1.876-23.68-1.407-61.043-2.345-63.815s-12.895-6.668-12.895-6.668s3.282,11.561,1.172,22.617
				C319.975,88.537,315.521,74.793,315.521,74.793z"/>
			<path style="fill:#464292;" d="M313.349,77.243c0,0,2.62,11.578,7.116,20.863c0.27,0.216,9.764,2.167,9.764,2.167l-1.74-3.269
				C328.489,97.004,321.456,76.973,313.349,77.243z"/>
			<path style="fill:#464292;" d="M331.446,76.316c0,0,2.172,11.079,1.901,19.065c-1.712,3.392-3.118,4.892-3.118,4.892l-4.289-9.37
				l1.517-15.552L331.446,76.316z"/>
			<path style="fill:#F9665F;" d="M315.99,62.746l-0.469,12.046c0,0,9.088,7.405,11.723,0V62.746H315.99z"/>
			<path style="fill:#FD7A6E;" d="M332.87,45.396c0,0-0.703,7.034,0.938,13.13c1.641,6.096,0.703,9.559-6.565,10.993
				c-7.268,1.434-10.316-4.694-10.316-4.694s-4.455,0.685-5.158-4.331c-0.703-5.016,3.751-2.927,3.751-2.927l2.814-7.715
				c0,0,5.861,1.407,9.847-4.455C330.291,46.1,332.87,45.396,332.87,45.396z"/>
			<g>
				<defs>
					<polygon id="XMLID_1_" points="315.123,79.5 329.655,101.926 329.655,77.783 324.249,77.873 					"/>
				</defs>
				<use xlink:href="#XMLID_1_"  style="overflow:visible;fill:#FCEBE4;"/>
				<clipPath id="XMLID_00000090262593165822300650000017864712659888770451_">
					<use xlink:href="#XMLID_1_"  style="overflow:visible;"/>
				</clipPath>
				<path style="clip-path:url(#XMLID_00000090262593165822300650000017864712659888770451_);fill:#1C163B;" d="M320.465,80.727
					l3.849,4.467c0.845-0.212,0.992-0.248,1.837-0.46l1.093-4.879l-2.995-1.982l-3.784,3.243"/>
				<path style="clip-path:url(#XMLID_00000090262593165822300650000017864712659888770451_);fill:#1C163B;" d="M324.314,85.194
					l-1.217,7.993c0,0,4.134,8.291,6.477,7.603c2.342-0.688,0.621-8.931,0.621-8.931l-4.043-7.125L324.314,85.194z"/>
			</g>
			<rect x="334.878" y="92.917" style="fill:#FCEBE4;" width="11.08" height="14.819"/>
			<polygon style="fill:#F7DED5;" points="315.521,73.369 311.694,76.844 320.465,83.639 324.249,77.873 			"/>
			<polygon style="fill:#F7DED5;" points="327.243,73.369 324.249,77.873 327.942,82.197 330.666,76.291 			"/>
			<path style="fill:#FD7A6E;" d="M350.362,100.327c0,0,0.641,5.292-1.07,7.409c-1.711,2.117-3.313,0.247-2.777-3.953
				C347.052,99.583,350.362,100.327,350.362,100.327z"/>
			<g>
				<path style="fill:#1C163B;" d="M331.455,103.457c0.921,3.222,1.606,6.512,2.117,9.828c0.525,3.315,0.786,6.671,0.973,10.016
					c0.153,3.349,0.252,6.701,0.244,10.052c0,3.351-0.087,6.702-0.277,10.047c0.002-1.675-0.021-3.349-0.055-5.023l-0.091-5.019
					c-0.08-3.345-0.175-6.689-0.37-10.028c-0.141-3.344-0.408-6.67-0.841-9.985c-0.206-1.658-0.461-3.311-0.746-4.959
					C332.135,106.736,331.83,105.089,331.455,103.457z"/>
			</g>
			<path style="fill:#464292;" d="M329.655,117.24c0,0.558,0.452,1.011,1.011,1.011c0.558,0,1.01-0.452,1.01-1.011
				c0-0.558-0.452-1.011-1.01-1.011C330.108,116.229,329.655,116.682,329.655,117.24z"/>
			<path style="fill:#464292;" d="M330.666,133.255c0,0.558,0.452,1.011,1.01,1.011c0.558,0,1.011-0.452,1.011-1.011
				c0-0.558-0.452-1.01-1.011-1.01C331.118,132.244,330.666,132.697,330.666,133.255z"/>
			<polygon style="fill:#464292;" points="306.847,122.104 321.382,120.753 321.577,123.407 307.042,124.966 			"/>
			<polygon style="fill:#464292;" points="341.292,120.357 339.112,119.928 339.112,122.555 341.292,122.87 			"/>
			<path style="fill:#1C163B;" d="M445.006,220.336h-4.119c0,0-2.642,4.845-7.724,6.895c-5.083,2.05-6.509,6.576-6.509,6.576h18.902
				C445.555,233.807,446.611,230.782,445.006,220.336z"/>
			<path style="fill:#FCE9E2;" d="M448.83,81.461c0,0,5.047,0,6.422,1.65c0.787,0.945-3.437,4.95-2.337,5.362
				c1.1,0.412,2.2,1.237,1.375,2.75s0.138,10.587-0.55,13.887c-0.687,3.3-0.223,3.712-0.799,6.05
				c-0.576,2.337-2.403,4.146-6.763,3.437c-4.36-0.709-13.744,0.55-15.465-2.062c-2.821-0.412-5.159-0.55-5.159-0.55v-6.187h4.262
				c0,0,0.55-2.062,2.062-1.375c1.512,0.687,3.987,1.787,5.225,0.825c1.237-0.962,7.287,0.962,7.287,0.962s0-4.537-0.55-5.637
				c-0.55-1.1,0.962-5.087,0.962-5.087S445.49,83.111,448.83,81.461z"/>
			<path style="fill:#FD7A6E;" d="M435.178,49.632c0,0-10.174,3.437-12.237,8.799c-2.062,5.362,0.825,16.361,6.118,16.361
				s10.518-7.287,10.518-7.287s3.712,0.962,4.4-3.162c0.688-4.125-3.526-4.262-3.526-4.262S435.453,56.506,435.178,49.632z"/>
			<path style="fill:#FD7A6E;" d="M320.465,103.817c0,0,6.756-3.939,9.819-5.348c3.063-1.409,8.828-3.598,9.098-2.368
				c0.27,1.23-2.469,1.95-4.883,2.851c5.874-0.45,6.344,0.173,6.366,1.439c0.023,1.266-5.267,3.425-5.267,3.425s4.144-0.991,4.054,0
				c-0.09,0.991-4.684,1.712-7.026,1.892c-2.342,0.18-10.598,2.522-11.244,2.522C320.735,108.231,320.465,103.817,320.465,103.817z"
				/>
			<polygon style="fill:#FCEBE4;" points="317.042,102.466 321.382,101.926 321.382,112.71 318.753,113.546 			"/>
			<path style="fill:#727CCB;" d="M304.736,80.727c0,0-5.393,2.602-5.393,4.034s-3.986,15.76-5.158,19.85
				c-1.172,4.09,2.345,9.867,5.275,11.199c2.931,1.331,20.28-1.057,20.28-1.057l-1.641-13.789c0,0-10.516,0.963-10.082,0.469
				C310.362,96.039,315.052,87.688,304.736,80.727z"/>
			<path style="fill:#FD7A6E;" d="M350.456,102.156c0.26-1.585-0.403-3.183-1.58-4.276c-0.774-0.719-1.757-1.603-2.467-2.14
				c-1.351-1.021-1.876-0.094-1.707,0.627c0.17,0.721,1.641,1.685,2.349,3.216c-2.534,0.721-3.435,2.612-3.255,3.693
				c0.18,1.081-0.325,3.755,2.162,3.67C347.7,106.888,350.127,104.161,350.456,102.156z"/>
			<polygon style="fill:#F7DED5;" points="430.712,84.761 440.452,76.425 443.066,80.941 433.162,88.757 			"/>
			<polygon style="fill:#F7DED5;" points="429.834,76.425 426.654,79.526 428.244,87.812 430.712,84.761 			"/>
			<g>
				<path style="fill:#5E5FAF;" d="M307.663,221.55c0.555-5.922,1.137-11.84,1.755-17.755l1.901-17.739l2.027-17.725
					c0.692-5.906,1.419-11.809,2.175-17.708c-0.553,5.922-1.136,11.84-1.754,17.755l-1.902,17.739l-2.028,17.725
					C309.146,209.748,308.418,215.65,307.663,221.55z"/>
			</g>
			<g>
				<path style="fill:#5E5FAF;" d="M331.676,221.55c-0.101-5.911-0.174-11.821-0.211-17.732l-0.064-17.732l0.063-17.732
					c0.037-5.911,0.11-11.821,0.212-17.732c0.102,5.911,0.175,11.821,0.212,17.732l0.063,17.732l-0.064,17.732
					C331.851,209.729,331.777,215.639,331.676,221.55z"/>
			</g>
			<g>
				<path style="fill:#1C163B;" d="M300.941,107.736c0.001-0.858,0.266-1.708,0.666-2.479c0.396-0.778,0.97-1.462,1.633-2.034
					c0.689-0.539,1.444-0.997,2.265-1.277c0.402-0.16,0.83-0.239,1.24-0.358c0.426-0.063,0.849-0.122,1.272-0.157
					c-0.807,0.281-1.603,0.537-2.347,0.905c-0.748,0.357-1.441,0.799-2.077,1.309C302.352,104.698,301.396,106.096,300.941,107.736z
					"/>
			</g>
			<g>
				<path style="fill:#1C163B;" d="M299.91,103.457c0.379-0.375,0.81-0.681,1.253-0.965c0.441-0.289,0.914-0.525,1.395-0.742
					c0.488-0.201,0.988-0.382,1.508-0.494c0.52-0.11,1.052-0.18,1.583-0.136c-0.999,0.352-1.931,0.725-2.873,1.136
					C301.832,102.656,300.903,103.086,299.91,103.457z"/>
			</g>
			<g>
				<path style="fill:#EDD4CC;" d="M443.84,100.572c-0.244-1.346-0.329-2.715-0.349-4.084c-0.014-1.37,0.083-2.74,0.25-4.104
					c0.222-1.355,0.501-2.708,0.959-4.008c0.478-1.291,1.099-2.537,1.942-3.616c-1.306,2.402-2.001,5.025-2.356,7.7
					c-0.21,1.334-0.298,2.684-0.374,4.036C443.844,97.85,443.822,99.207,443.84,100.572z"/>
			</g>
			<g>
				<path style="fill:#EDD4CC;" d="M426.654,105.797c1.054-0.071,2.108-0.133,3.162-0.162l-0.162,0.176
					c-0.027-0.354-0.001-0.696,0.134-1.041c0.119-0.344,0.445-0.666,0.833-0.746c0.781-0.16,1.412,0.215,2.005,0.452
					c1.192,0.521,2.292,1.386,3.439,0.984c0.284-0.078,0.556-0.224,0.823-0.376c0.285-0.16,0.625-0.323,0.958-0.397
					c0.675-0.167,1.357-0.115,2.007-0.019c1.306,0.207,2.537,0.679,3.68,1.287c-1.215-0.441-2.466-0.789-3.725-0.917
					c-0.628-0.059-1.261-0.035-1.844,0.111c-0.299,0.078-0.541,0.2-0.818,0.361c-0.289,0.173-0.588,0.343-0.926,0.446
					c-0.667,0.248-1.461,0.144-2.07-0.14c-0.617-0.278-1.164-0.612-1.737-0.884c-0.567-0.261-1.169-0.562-1.692-0.467
					c-0.53,0.055-0.759,0.738-0.743,1.319l0.005,0.181l-0.167-0.005C428.762,105.93,427.708,105.867,426.654,105.797z"/>
			</g>
			<g>
				<path style="fill:#EDD4CC;" d="M440.452,114.326c-1.701,0.248-3.427,0.336-5.157,0.243c-0.865-0.052-1.733-0.154-2.585-0.394
					c-0.821-0.256-1.765-0.603-2.245-1.533l0.216,0.16c-1.716-0.178-3.429-0.392-5.145-0.586l-0.22-0.025l0.005-0.207
					c0.054-2.062,0.103-4.125,0.233-6.187c0.13,2.062,0.179,4.125,0.233,6.187l-0.214-0.232c1.723,0.172,3.449,0.325,5.172,0.514
					l0.148,0.016l0.068,0.144c0.309,0.653,1.113,1.033,1.888,1.276c0.798,0.238,1.64,0.352,2.481,0.461
					C437.02,114.337,438.736,114.361,440.452,114.326z"/>
			</g>
			<g>
				<rect x="359.506" y="111.547" style="fill:#727CCB;" width="13.886" height="13.886"/>
				<rect x="359.506" y="110.49" style="fill:#464292;" width="13.886" height="1.767"/>
			</g>
			<g>
				<rect x="359.506" y="98.03" style="fill:#464292;" width="13.886" height="10.639"/>
				<rect x="359.506" y="96.973" style="fill:#5E5FAF;" width="13.886" height="1.766"/>
			</g>
			<g>
				<rect x="384.472" y="98.146" style="fill:#464292;" width="13.886" height="13.886"/>
				<rect x="384.472" y="97.089" style="fill:#5E5FAF;" width="13.886" height="1.766"/>
			</g>
			<g>
				<rect x="375.46" y="98.146" style="fill:#727CCB;" width="6.943" height="13.886"/>
				<rect x="375.46" y="97.089" style="fill:#464292;" width="6.943" height="1.766"/>
			</g>
			<g>
				<path style="fill:#1C163B;" d="M430.281,140.261c0.339,1.385,0.618,2.78,0.888,4.176c0.272,1.396,0.494,2.8,0.744,4.2
					c0.206,1.407,0.434,2.81,0.618,4.22c0.183,1.41,0.357,2.822,0.471,4.244c-0.34-1.385-0.619-2.78-0.889-4.176
					c-0.27-1.396-0.495-2.8-0.743-4.2c-0.204-1.407-0.435-2.81-0.617-4.22C430.57,143.094,430.396,141.682,430.281,140.261z"/>
			</g>
		</g>
	</g>
</g>
</svg>
